<svg id="Layer_1" data-name="Layer 1" xmlns="http://www.w3.org/2000/svg" width="718.32" height="713.24" viewBox="0 0 718.32 713.24"><defs><style>.cls-1,.cls-3,.cls-4{fill:#9c1116;}.cls-1,.cls-10,.cls-11,.cls-12,.cls-13,.cls-2,.cls-3,.cls-6,.cls-7,.cls-8,.cls-9{stroke:#9c1116;stroke-miterlimit:2.61;}.cls-1,.cls-2{stroke-width:0.45px;}.cls-2,.cls-5{fill:#fff;}.cls-3{stroke-width:0.84px;}.cls-10,.cls-11,.cls-12,.cls-13,.cls-6,.cls-7,.cls-8,.cls-9{fill:none;}.cls-6{stroke-width:8.3px;}.cls-7{stroke-width:12.3px;}.cls-10,.cls-8{stroke-width:1.24px;}.cls-9{stroke-width:1.24px;}.cls-10{stroke-dasharray:2.49 1.24;}.cls-11{stroke-width:1.24px;stroke-dasharray:2.49 1.25;}.cls-12{stroke-width:1.38px;stroke-dasharray:2.76 1.38;}.cls-13{stroke-width:1.39px;stroke-dasharray:2.78 1.39;}</style></defs><title>anna_university_logo_freelogovectors.net</title><g id="g3238"><path id="path182" class="cls-1" d="M188.88,614.17l7.46-10.29-45.43-43-34.47,18.51-4.15.65-30.67-5.71-3-.55-1.46-2.63L58.64,537.65,57.16,535l1.21-2.84,10.71-25,2.58-3,36.77-21.92L93.28,422.61l-38.58.47-3.8-1.21-23.38-17L25,403.06l-.16-3-2.13-39.86-.17-3.26,2.58-2.05,25.52-20.19,3.87-1.37,36.32-.47,12.51-61.62L74.84,250.76l-2.06-2.51L59,218.49l-1.47-3.16,1.87-2.92L80.08,180l1.7-2.66,3.14-.27,30.83-2.66,3.65.85,31.48,17.85,45.37-44L176.4,120l-1.11-4,2.12-31.89.22-3.25,2.81-1.73L215,57.9l2.62-1.62,2.89,1.07L249.2,68l3.12,2.48,19.9,30.31,60-13.83.94-39.2,1.49-3.92L353.75,21l2-2.36,3,.08,40.39,1.06,3.14.08,1.85,2.53,18.6,25.5L424,51.29l1.88,35.1,58.62,13.85,22-32,3.18-2.44,29.23-10.09,3.06-1.06,2.65,1.85,31.88,22.32,2.48,1.74.23,3,2.12,28.7-.94,3.75L560.1,149l43.11,43.11L640,172.52l3.55-.72,29.23,2.66,3.36.3,1.63,3,19.66,35.61,1.48,2.69-1.21,2.84-10.62,25-2.14,2.68L652.7,269.59l13.47,61.3L706,332.78l3.67,1.42,21.79,17.53,2.51,2-.12,3.16-1.6,38.27-.13,3.08-2.5,1.81-25,18.07L701,419.37l-38,.93-12.48,63.32,32.67,18.46,2.65,2.9,11.69,25.51,1.28,2.78L697.5,536l-17,33.48-1.42,2.78-3.05.59-30.29,5.85-4.1-.6-37.79-19.61L561,603.11l9.71,12.14,8.3,10.37-13.26,0L194,624.24l-12.42-.06,7.28-10Z" transform="translate(-15.84 -18.38)"/><path id="path186" class="cls-2" d="M209.89,606.81l-3.46,4.77,346.09,1.24-4.88-6.11-3.47-4.33,3.87-4,50-52.08,3.28-3.41,4.2,2.17,40,20.78L670.59,561l14.22-28-9.55-20.84-34.88-19.71-4-2.27.88-4.48,14.35-72.81,1-5,5.09-.12,41.09-1,20.86-15.09,1.34-32-17.64-14.2-42.61-2-4.86-.24-1-4.78L639.4,268.19l-.89-4.06,3.4-2.44,34.18-24.48,8.71-20.48-16.55-30-24-2.18L605,205.48l-4.16,2.21-3.31-3.3-50-50L544,150.89l2.62-4.26,21.76-35.43-1.75-23.69L539.91,68.78l-24.19,8.36L492.47,111l-2.47,3.6-4.21-1L418.3,97.66l-4.67-1.11-.24-4.75-2-38L395.71,32.38l-34.2-.9L345.79,50.25l-1,41.9-.12,4.93-4.82,1.11-69.09,15.94-4.3,1L264,111.43,242.85,79.16,219,70.33,189.91,88.25l-1.77,26.47,21.6,31.64,3,4.41-3.82,3.71-52.62,51-3.41,3.31-4.14-2.35-33.83-19.18L89.11,189.5,72,216.34l11.63,25,30.55,21.9,3.34,2.39-.81,4-14.35,70.69-1,5-5.14.07L56.88,346,35.64,362.81l1.79,33.57,19.21,14,41.49-.51,5-.06,1.24,4.87,17.54,69.09,1.16,4.56L119,490.72,79.93,514l-8.67,20.23,15.61,28.21,25.52,4.75L149,547.56l4-2.18,3.32,3.15,52.79,49.94,4,3.82-3.27,4.51Z" transform="translate(-15.84 -18.38)"/><path id="path196" class="cls-3" d="M187.29,336.07l79-54,1.38,47.1,76.2-50.56v47.79l79-42.94L423.5,325,501.08,282,502.47,325l73.42-41.56,6.93,121.91-15.93.69-376.14.7-20.08,1.38,2.07-72.73Z" transform="translate(-15.84 -18.38)"/><path id="path198" class="cls-4" d="M379,162.22h0c57.4,0,109.53,23.7,147.3,61.94a211.48,211.48,0,0,1,61.14,149h0a211.45,211.45,0,0,1-61.15,149C488.49,560.33,436.37,584,379,584h0c-57.41,0-109.53-23.7-147.3-61.94a211.48,211.48,0,0,1-61.14-149h0a211.5,211.5,0,0,1,61.14-149c37.77-38.23,89.89-61.93,147.29-61.94Zm0,12.71h0c-53.89,0-102.81,22.24-138.25,58.11a198.86,198.86,0,0,0-57.47,140.09h0a198.86,198.86,0,0,0,57.46,140.07c35.45,35.87,84.37,58.11,138.27,58.11h0c53.89,0,102.81-22.24,138.25-58.11a198.88,198.88,0,0,0,57.47-140.08h0A198.91,198.91,0,0,0,517.23,233c-35.45-35.87-84.37-58.11-138.27-58.12" transform="translate(-15.84 -18.38)"/><path id="path200" class="cls-5" d="M194.91,343.69h20.78v15.24H194.91Z" transform="translate(-15.84 -18.38)"/><path id="path202" class="cls-5" d="M228.85,343.69h20.78v15.24H228.85Z" transform="translate(-15.84 -18.38)"/><path id="path204" class="cls-5" d="M274.57,343.69h20.78v15.24H274.57Z" transform="translate(-15.84 -18.38)"/><path id="path206" class="cls-5" d="M309.9,343.69h20.78v15.24H309.9Z" transform="translate(-15.84 -18.38)"/><path id="path208" class="cls-5" d="M348.69,343.69h20.78v15.24H348.69Z" transform="translate(-15.84 -18.38)"/><path id="path210" class="cls-5" d="M385.4,343.69h20.78v15.24H385.4Z" transform="translate(-15.84 -18.38)"/><path id="path212" class="cls-5" d="M423.5,343.69h20.78v15.24H423.5Z" transform="translate(-15.84 -18.38)"/><path id="path214" class="cls-5" d="M462.29,343.69h20.78v15.24H462.29Z" transform="translate(-15.84 -18.38)"/><path id="path216" class="cls-5" d="M500.39,343.69h20.78v15.24H500.39Z" transform="translate(-15.84 -18.38)"/><path id="path218" class="cls-5" d="M538.49,343.69h20.78v15.24H538.49Z" transform="translate(-15.84 -18.38)"/><path id="path222" class="cls-6" d="M449,182.28s-74,67.48,51.51,28.53" transform="translate(-15.84 -18.38)"/><path id="path226" class="cls-7" d="M434.19,226V326.76" transform="translate(-15.84 -18.38)"/><path id="path228" class="cls-4" d="M192.81,251.51l-4.14,7.77L179,258.09l-7.51,14.14,6.48,7.19-4,7.57-28-32.57,4-7.55Zm-21,5.71-15.71-2.1,10.58,11.74Zm23.86-8.7-31.12-25.2,5-6.11,31.09,4.09-20.78-16.83,4.73-5.84,31.12,25.2-5.11,6.31-30.45-3.89,20.29,16.43Zm25.87-31.32-25.74-30.68,6-5.06,29.75,9.95L214.4,170.93l5.75-4.83,25.74,30.67L239.67,202l-29.14-9.63,16.78,20Zm62.85-43.11-7.7,4.27-7.47-6.26-14,7.75,1.53,9.56-7.5,4.16L243.49,151l7.48-4.15Zm-20.71-6.64-12-10.32,2.47,15.62ZM292,128.12l7.81-2.09L305.43,147a46.7,46.7,0,0,0,2,6.39,6.45,6.45,0,0,0,3.41,3.16,8.51,8.51,0,0,0,5.54.06,8.16,8.16,0,0,0,4.66-2.7,5.53,5.53,0,0,0,1.13-3.88,44.51,44.51,0,0,0-1.42-6.66L315,122l7.8-2.09,5.45,20.31a54.34,54.34,0,0,1,2,10,11.17,11.17,0,0,1-1,5.47,12.32,12.32,0,0,1-3.7,4.38,20.53,20.53,0,0,1-7.14,3.16c-3.69,1-6.6,1.32-8.74,1a12.56,12.56,0,0,1-5.41-2.1,11.12,11.12,0,0,1-3.34-3.71,48.68,48.68,0,0,1-3.39-9.61L292,128.12Zm49.9,28.24-2.79-39.94,7.84-.55,18.22,25.53-1.86-26.67,7.49-.53,2.8,40-8.11.56-17.92-24.92,1.83,26.05ZM382,154.48l.7-40,8.08.14-.7,40Zm25.79,2.42L400.63,115l8.65,1.53,4.82,30.94L428.9,120l8.45,1.49-21.07,36.94Zm26.53,5,13-37.86,28.07,9.67-2.21,6.4-20.43-7-2.89,8.39,19,6.55-2.19,6.37-19-6.54-3.55,10.3,21.15,7.28-2.2,6.39Zm35.36,12.41,19.41-35,14.9,8.26q5.61,3.1,7.62,5.47a9.19,9.19,0,0,1,2.23,5.61,11.56,11.56,0,0,1-1.54,6.36,10.76,10.76,0,0,1-5.93,5.24c-2.48.84-5.4.64-8.72-.62a18.77,18.77,0,0,1,2.16,5,46.17,46.17,0,0,1,.87,7.91l.49,9.21-8.45-4.69-.89-10.46a56.65,56.65,0,0,0-.87-7.21,6.37,6.37,0,0,0-1.32-2.64,13.63,13.63,0,0,0-3.35-2.37l-1.43-.79-8.1,14.62ZM488,158l5.23,2.89c3.4,1.89,5.59,2.92,6.6,3.11a4.34,4.34,0,0,0,2.8-.39,5.27,5.27,0,0,0,2.18-2.23,4.8,4.8,0,0,0,.63-3.38,5,5,0,0,0-1.9-2.85c-.53-.39-2.23-1.39-5.1-3l-5.51-3.05Zm23.42,25.2,6.53,4.47a9.61,9.61,0,0,0-1.54,6.32,8.73,8.73,0,0,0,3.3,5.18q3,2.52,5.57,2.51a4.89,4.89,0,0,0,4-1.68,3.63,3.63,0,0,0,.91-2.39,6.55,6.55,0,0,0-1.11-3.19c-.51-.87-1.79-2.7-3.83-5.51q-3.94-5.41-4.44-8.89a10.51,10.51,0,0,1,7.36-11.82,11,11,0,0,1,6.43.11,20.18,20.18,0,0,1,6.93,4c3.85,3.24,6,6.5,6.58,9.83a11.69,11.69,0,0,1-2.61,9.33L539,186.56a6.83,6.83,0,0,0,1.15-4.83,8.11,8.11,0,0,0-3-4.33A9.21,9.21,0,0,0,532,175a2.92,2.92,0,0,0-2.58,1.07,3.09,3.09,0,0,0-.64,2.64c.23,1.31,1.55,3.59,4,6.82a39.67,39.67,0,0,1,4.84,7.82,11.44,11.44,0,0,1,.77,6,12.07,12.07,0,0,1-2.88,5.91,11.69,11.69,0,0,1-5.61,3.71,11.5,11.5,0,0,1-7-.06,22.83,22.83,0,0,1-7.62-4.48q-5.81-4.87-6.68-10.18t2.85-11Zm21.15,36,28.31-28.31,5.72,5.71-28.32,28.32Zm16.21,18.5,25.48-21.38-7.63-9.09,5.19-4.36,20.45,24.37L587,231.61l-7.61-9.08-25.49,21.38ZM569,267.42l14.88-7.91,13.59-23.84L602,244l-9.56,15.76,18.32.72,4.38,8.22-27.44-2.09-14.83,7.89Z" transform="translate(-15.84 -18.38)"/><path id="path234" class="cls-8" d="M307.85,439.32c3-2.62,5.15-4.37,8.17-7,28.52-2.37,60.44-24.9,63.33-.58,12-26.76,35.9,2.23,64.79,1.17,2.14,1.84,4.28,3.11,6.42,5,10.6,31,21.21,62.65,31.82,93.68-53.31,1.73-91.85-33.94-94.86,7.3l-15.47.29c-2.52-38.3-55.78-3.07-95.14-7.59q15.46-46.11,30.94-92.23Z" transform="translate(-15.84 -18.38)"/><path id="path238" class="cls-8" d="M307.85,439.32c3-2.62,5.15-4.37,8.17-7,28.52-2.37,60.44-24.9,63.33-.58,12-26.76,35.9,2.23,64.79,1.17,2.14,1.84,4.28,3.11,6.42,5,10.6,31,21.21,62.65,31.82,93.68-53.31,1.73-91.85-33.94-94.86,7.3l-15.47.29c-2.52-38.3-55.78-3.07-95.14-7.59q15.46-46.11,30.94-92.23Z" transform="translate(-15.84 -18.38)"/><path id="path242" class="cls-9" d="M316.19,431.93c28.52-2.15,60.44-23.39,63.33-1.4,12.21-22.32,30.6-.76,64.21,2.22l28.61,88.9c-54.18-6-73.46-33.32-92.23,6.31-25.75-42.29-37.93-10.94-93.1-5.73Z" transform="translate(-15.84 -18.38)"/><path id="path246" class="cls-8" d="M379.64,430.86V526.3" transform="translate(-15.84 -18.38)"/><path id="path250" class="cls-10" d="M321.56,446.33s28-9.92,37.07-5.55S370,443.12,370,443.12" transform="translate(-15.84 -18.38)"/><path id="path254" class="cls-11" d="M321.64,452.91s27.51-9.93,36.4-5.55,11.17,2.34,11.17,2.34" transform="translate(-15.84 -18.38)"/><path id="path258" class="cls-12" d="M321.48,460.93s26.83-9.92,35.5-5.54,10.9,2.33,10.9,2.33" transform="translate(-15.84 -18.38)"/><path id="path262" class="cls-13" d="M321.47,468.6s26-9.92,34.39-5.54,10.55,2.33,10.55,2.33" transform="translate(-15.84 -18.38)"/><path id="path266" class="cls-10" d="M317.77,476.39s28-9.92,37.07-5.55,11.38,2.34,11.38,2.34" transform="translate(-15.84 -18.38)"/><path id="path270" class="cls-10" d="M316.6,483.39s28-9.92,37.07-5.54,11.38,2.33,11.38,2.33" transform="translate(-15.84 -18.38)"/><path id="path274" class="cls-10" d="M314.56,491s28-9.92,37.06-5.54S363,487.77,363,487.77" transform="translate(-15.84 -18.38)"/><path id="path278" class="cls-10" d="M312.52,497.11s28-9.92,37.06-5.54S361,493.9,361,493.9" transform="translate(-15.84 -18.38)"/><path id="path282" class="cls-10" d="M439.18,446.33s-28-9.92-37.06-5.55-11.39,2.34-11.39,2.34" transform="translate(-15.84 -18.38)"/><path id="path286" class="cls-11" d="M439.26,452.91s-27.51-9.93-36.4-5.55-11.17,2.34-11.17,2.34" transform="translate(-15.84 -18.38)"/><path id="path290" class="cls-12" d="M439.09,460.93s-26.83-9.92-35.5-5.54-10.9,2.33-10.9,2.33" transform="translate(-15.84 -18.38)"/><path id="path294" class="cls-13" d="M439.08,468.6s-26-9.92-34.38-5.54-10.56,2.33-10.56,2.33" transform="translate(-15.84 -18.38)"/><path id="path298" class="cls-10" d="M443,476.39s-28-9.92-37.06-5.55-11.38,2.34-11.38,2.34" transform="translate(-15.84 -18.38)"/><path id="path302" class="cls-10" d="M444.14,483.39s-28-9.92-37.06-5.54-11.38,2.33-11.38,2.33" transform="translate(-15.84 -18.38)"/><path id="path306" class="cls-10" d="M446.18,491s-28-9.92-37.06-5.54-11.38,2.33-11.38,2.33" transform="translate(-15.84 -18.38)"/><path id="path310" class="cls-10" d="M448.23,497.11s-28-9.92-37.07-5.54-11.38,2.33-11.38,2.33" transform="translate(-15.84 -18.38)"/><path id="path314" class="cls-1" d="M22.42,614.05H728.71V731.4H16.06V614.05Z" transform="translate(-15.84 -18.38)"/><path id="path318" class="cls-2" d="M716,626.76H28.77v91.92H716Z" transform="translate(-15.84 -18.38)"/><path id="path320" class="cls-4" d="M46.18,699V653h8.56q4.78,0,6.26.66c1.57.71,2.85,2.22,3.87,4.54a22.41,22.41,0,0,1,1.53,9,23,23,0,0,1-1.32,8.35,9.86,9.86,0,0,1-3.3,4.73q-2,1.37-6.8,1.37H51.49V699Zm5.31-38.17v13h2.95a9.25,9.25,0,0,0,4-.59,4.24,4.24,0,0,0,1.73-2.15,10.87,10.87,0,0,0,0-7.65,4.17,4.17,0,0,0-1.74-2.11,11.46,11.46,0,0,0-4.37-.53ZM70.79,699V653H82c2.86,0,4.92.41,6.15,1.24a8.73,8.73,0,0,1,3,4.29,20,20,0,0,1,1.19,7.31,18,18,0,0,1-1.81,8.69,8,8,0,0,1-5.14,4.13,17.33,17.33,0,0,1,2.82,3.84A62.24,62.24,0,0,1,91.3,690l3.2,9H88.16l-3.87-10a71.15,71.15,0,0,0-2.83-6.78,5.17,5.17,0,0,0-1.58-1.89,5.35,5.35,0,0,0-2.68-.51H76.1V699Zm5.31-26.52h4a14.23,14.23,0,0,0,4.61-.45,3.39,3.39,0,0,0,1.6-1.83,9.35,9.35,0,0,0,.61-3.67,8.71,8.71,0,0,0-.61-3.53,3.63,3.63,0,0,0-1.67-1.83,15,15,0,0,0-4.32-.34H76.1Zm20.23,3.83A45,45,0,0,1,98,662.77a18.42,18.42,0,0,1,4.44-7.91,9.3,9.3,0,0,1,6.66-2.6q5.66,0,9.23,6.17T121.93,676q0,11.52-3.78,18-3.32,5.73-9,5.73c-3.82,0-6.84-1.9-9-5.67q-3.8-6.48-3.78-17.8Zm5.48-.31q0,7.92,2.11,11.88t5.23,4q3.13,0,5.2-3.93t2.06-12.08c0-5.33-.67-9.26-2-11.82s-3.08-3.82-5.25-3.82-3.93,1.29-5.29,3.85-2,6.56-2,12Zm36.56,6.11v-7.75h11.48v18.3a15.47,15.47,0,0,1-4.92,5,11.49,11.49,0,0,1-6.39,2.1,9.88,9.88,0,0,1-6.89-2.74,18.6,18.6,0,0,1-4.73-8.21A42.55,42.55,0,0,1,125.17,676a41.78,41.78,0,0,1,1.77-13,19,19,0,0,1,4.59-8.06,9.48,9.48,0,0,1,6.75-2.66,9.33,9.33,0,0,1,7.57,3.43q2.84,3.43,3.65,10.07l-5.27,1.73a11.11,11.11,0,0,0-2.18-5.43,4.76,4.76,0,0,0-3.77-1.88c-2.26,0-4.11,1.26-5.51,3.78s-2.11,6.35-2.11,11.52q0,8.29,2.28,12.62,2,3.74,5.3,3.73a6.15,6.15,0,0,0,3.24-1.05,10.94,10.94,0,0,0,3-2.86v-5.83ZM154.79,699V653H166q4.31,0,6.15,1.24a8.8,8.8,0,0,1,3,4.29,20.26,20.26,0,0,1,1.18,7.31,18.08,18.08,0,0,1-1.8,8.69,8,8,0,0,1-5.15,4.13,17,17,0,0,1,2.82,3.84A62.24,62.24,0,0,1,175.3,690l3.2,9h-6.34l-3.87-10a71.15,71.15,0,0,0-2.83-6.78,5,5,0,0,0-1.58-1.89,5.32,5.32,0,0,0-2.68-.51h-1.1V699Zm5.31-26.52h4a14.19,14.19,0,0,0,4.61-.45,3.39,3.39,0,0,0,1.6-1.83,9.15,9.15,0,0,0,.62-3.67,8.53,8.53,0,0,0-.62-3.53,3.59,3.59,0,0,0-1.67-1.83,14.94,14.94,0,0,0-4.32-.34H160.1ZM181.4,699V653H201v7.77H186.71V671H200v7.73H186.71v12.5h14.76V699Zm23.24-15,5.2-.88q.87,8.8,5.75,8.81a4.49,4.49,0,0,0,3.79-1.81,7,7,0,0,0,1.39-4.46,6.59,6.59,0,0,0-.48-2.66,4.28,4.28,0,0,0-1.48-1.81,34.51,34.51,0,0,0-4.78-2.36,14.65,14.65,0,0,1-5-3.2,12.13,12.13,0,0,1-2.52-4.53,19,19,0,0,1-.93-6,18.43,18.43,0,0,1,1.19-6.77,10.07,10.07,0,0,1,3.31-4.54,8.64,8.64,0,0,1,5.21-1.53,8.44,8.44,0,0,1,7.26,3.6q2.61,3.6,2.76,10.31l-5.33.41c-.23-2.47-.74-4.19-1.52-5.18a4,4,0,0,0-3.31-1.46,4.22,4.22,0,0,0-3.31,1.28,4.54,4.54,0,0,0-1.17,3.2,4.74,4.74,0,0,0,1.06,3.15c.7.87,2.32,1.8,4.84,2.83a17.68,17.68,0,0,1,5.81,3.49,12.06,12.06,0,0,1,2.74,4.73,22.94,22.94,0,0,1,.94,7,18.48,18.48,0,0,1-2.57,10.05q-2.59,4.08-8.08,4.08-9.69,0-10.8-15.76Zm24.58,0,5.2-.88q.89,8.8,5.76,8.81a4.5,4.5,0,0,0,3.79-1.81,7,7,0,0,0,1.39-4.46,6.59,6.59,0,0,0-.48-2.66,4.28,4.28,0,0,0-1.48-1.81,34.51,34.51,0,0,0-4.78-2.36,14.65,14.65,0,0,1-5-3.2,12.13,12.13,0,0,1-2.52-4.53,18.77,18.77,0,0,1-.93-6,18.43,18.43,0,0,1,1.19-6.77,10.07,10.07,0,0,1,3.31-4.54,8.61,8.61,0,0,1,5.2-1.53,8.44,8.44,0,0,1,7.27,3.6q2.61,3.6,2.76,10.31l-5.33.41c-.24-2.47-.74-4.19-1.52-5.18a4,4,0,0,0-3.31-1.46,4.22,4.22,0,0,0-3.31,1.28,4.54,4.54,0,0,0-1.17,3.2,4.79,4.79,0,0,0,1.05,3.15c.71.87,2.33,1.8,4.85,2.83a17.68,17.68,0,0,1,5.81,3.49,12.06,12.06,0,0,1,2.74,4.73,22.94,22.94,0,0,1,.94,7,18.4,18.4,0,0,1-2.58,10.05q-2.58,4.08-8.07,4.08-9.71,0-10.8-15.76Zm42.13,15V660.81h-7.84V653h21v7.77h-7.82V699Zm16.6,0V653h5.31v18.07h10.46V653h5.33V699h-5.33V678.89H293.26V699Zm26.61,0V653h11.22q4.31,0,6.15,1.24a8.8,8.8,0,0,1,3,4.29,20.26,20.26,0,0,1,1.18,7.31,18,18,0,0,1-1.81,8.69,8,8,0,0,1-5.14,4.13,17,17,0,0,1,2.82,3.84,62.24,62.24,0,0,1,3.06,7.47l3.2,9h-6.34l-3.87-10a71.15,71.15,0,0,0-2.83-6.78,5.08,5.08,0,0,0-1.58-1.89,5.35,5.35,0,0,0-2.68-.51h-1.1V699Zm5.31-26.52h4a14.19,14.19,0,0,0,4.61-.45,3.39,3.39,0,0,0,1.6-1.83,9.17,9.17,0,0,0,.61-3.67A8.54,8.54,0,0,0,330,663a3.63,3.63,0,0,0-1.67-1.83,14.94,14.94,0,0,0-4.32-.34h-4.18Zm20.23,3.83a45,45,0,0,1,1.7-13.52,18.53,18.53,0,0,1,4.44-7.91,9.3,9.3,0,0,1,6.66-2.6q5.67,0,9.23,6.17T365.7,676q0,11.52-3.78,18-3.32,5.73-9,5.73c-3.82,0-6.83-1.9-9-5.67q-3.78-6.48-3.78-17.8Zm5.49-.31q0,7.92,2.1,11.88t5.23,4c2.1,0,3.82-1.31,5.2-3.93s2.06-6.65,2.06-12.08-.66-9.26-2-11.82-3.09-3.82-5.26-3.82-3.93,1.29-5.29,3.85-2,6.56-2,12ZM369.81,653h5.31v24.88c0,3.87.06,6.38.2,7.55a9.1,9.1,0,0,0,1.67,4.7,4.27,4.27,0,0,0,3.5,1.66,4.06,4.06,0,0,0,3-1.18,6.38,6.38,0,0,0,1.59-3.26,57.79,57.79,0,0,0,.42-8.94V653h5.34v24.13a92,92,0,0,1-.69,13.36,12.45,12.45,0,0,1-3.12,6.67,8.4,8.4,0,0,1-6.4,2.56,9.19,9.19,0,0,1-6.44-2.12,12.07,12.07,0,0,1-3.36-5.95q-1.05-3.83-1-14.15V653Zm38.94,29.05v-7.75h11.48v18.3a15.43,15.43,0,0,1-4.91,5,11.51,11.51,0,0,1-6.39,2.1A9.86,9.86,0,0,1,402,697a18.7,18.7,0,0,1-4.74-8.21A42.56,42.56,0,0,1,395.56,676a41.78,41.78,0,0,1,1.77-13,18.93,18.93,0,0,1,4.58-8.06,9.48,9.48,0,0,1,6.75-2.66,9.32,9.32,0,0,1,7.57,3.43q2.85,3.43,3.65,10.07l-5.26,1.73a11.21,11.21,0,0,0-2.18-5.43,4.79,4.79,0,0,0-3.78-1.88c-2.26,0-4.1,1.26-5.5,3.78s-2.11,6.35-2.11,11.52q0,8.29,2.28,12.62c1.3,2.49,3.07,3.73,5.29,3.73a6.13,6.13,0,0,0,3.24-1.05,10.8,10.8,0,0,0,3-2.86v-5.83ZM425.17,699V653h5.32v18.07h10.45V653h5.34V699h-5.34V678.89H430.49V699Zm36.91,0V653h5.32v20.4L478.18,653h7.18l-9.94,17.89L485.89,699H479l-7.27-21.57-4.32,7.68V699Zm26.62,0V653h5.18l10.8,30.67V653h5V699h-5.36l-10.62-30v30Zm25.49-22.69a44.9,44.9,0,0,1,1.7-13.52,18.63,18.63,0,0,1,4.44-7.92,9.34,9.34,0,0,1,6.66-2.59q5.67,0,9.23,6.17T539.79,676q0,11.52-3.78,18c-2.21,3.82-5.2,5.73-9,5.73s-6.83-1.9-9-5.67q-3.78-6.48-3.78-17.8Zm5.49-.31q0,7.92,2.1,11.88t5.23,4c2.1,0,3.83-1.32,5.2-3.93s2.07-6.65,2.07-12.08-.67-9.26-2-11.82-3.09-3.82-5.26-3.82-3.93,1.29-5.29,3.85-2,6.56-2,12Zm28,23L541.37,653h5.47l3.94,31.55L555.62,653H562l4.63,32.09L570.66,653H576L569.6,699h-5.66l-5.27-34.35L553.44,699Zm31.23,0V653.41h5.31v37.82h13.26V699Zm22.39,0V653h19.59v7.77H606.6V671h13.27v7.73H606.6v12.5h14.76V699ZM625.84,653h9.72a10.67,10.67,0,0,1,5.57,1.17,10.79,10.79,0,0,1,3.45,4,24.72,24.72,0,0,1,2.49,7.23,57.05,57.05,0,0,1,.9,11.06,50.69,50.69,0,0,1-.94,10.37,25.85,25.85,0,0,1-2.4,7,10.65,10.65,0,0,1-3.5,3.86,9.71,9.71,0,0,1-5.29,1.31h-10Zm5.31,7.77v30.42h4a7.51,7.51,0,0,0,3.71-.68,5,5,0,0,0,1.89-2.09,14.73,14.73,0,0,0,1.22-4.4,66.06,66.06,0,0,0,0-16,12.86,12.86,0,0,0-1.54-4.63,4.88,4.88,0,0,0-2.53-2.23,14.6,14.6,0,0,0-4.32-.41Zm33.61,21.28v-7.75h11.49v18.3a15.57,15.57,0,0,1-4.92,5,11.51,11.51,0,0,1-6.39,2.1,9.88,9.88,0,0,1-6.89-2.74,18.51,18.51,0,0,1-4.74-8.21A42.56,42.56,0,0,1,651.57,676a41.78,41.78,0,0,1,1.77-13,18.93,18.93,0,0,1,4.58-8.06,9.5,9.5,0,0,1,6.75-2.66,9.32,9.32,0,0,1,7.57,3.43q2.85,3.43,3.65,10.07l-5.27,1.73a11,11,0,0,0-2.17-5.43,4.79,4.79,0,0,0-3.78-1.88c-2.26,0-4.1,1.26-5.5,3.78s-2.11,6.35-2.11,11.52q0,8.29,2.28,12.62c1.3,2.49,3.07,3.73,5.29,3.73a6.13,6.13,0,0,0,3.24-1.05,10.8,10.8,0,0,0,3-2.86v-5.83ZM681.19,699V653h19.59v7.77H686.5V671h13.26v7.73H686.5v12.5h14.75V699Z" transform="translate(-15.84 -18.38)"/></g></svg>